# xmcd
#
# Track frame offsets:
#	150
#	16682
#	32267
#	52464
#	74128
#	93164
#	108094
#	129374
#	144291
#	160915
#	174042
#
# Disc length: 2520 seconds
#
# Revision: 1
# Processed by: cddbd v1.5.2PL0 Copyright (c) Steve Scherf et al.
# Submitted via: EZCDAudioConverter 7.0.0.1
#
DISCID=8309d60b
DTITLE=Memphis la Blusera - Angelitos Culones
DYEAR=2004
DGENRE=Blues
TTITLE0=Angelitos Culones
TTITLE1=Estepario
TTITLE2=Hacia La Libertad
TTITLE3=Confundido
TTITLE4=Traigo Gasolina
TTITLE5=Enloquecido (El Hombre)
TTITLE6=Los Amantes
TTITLE7=Irresponsable
TTITLE8=Amigo Mio
TTITLE9=La Potra
TTITLE10=Viaja Paloma Viaja
EXTD=
EXTT0=
EXTT1=
EXTT2=
EXTT3=
EXTT4=
EXTT5=
EXTT6=
EXTT7=
EXTT8=
EXTT9=
EXTT10=
PLAYORDER=
